<svg xmlns="http://www.w3.org/2000/svg" viewBox="0 0 320 64" role="img" aria-label="ColCarpeta">
  <title>ColCarpeta</title>
  <g transform="translate(0 4) scale(0.875)">
    <path fill="#B8862F" d="M3 16a5 5 0 0 1 5-5h13.5a4 4 0 0 1 3.2 1.6l3.1 4.1a4 4 0 0 0 3.2 1.6H56a5 5 0 0 1 5 5v26a5 5 0 0 1-5 5H8a5 5 0 0 1-5-5z"/>
    <path fill="#14425C" d="M3 29a4 4 0 0 1 4-4h50a4 4 0 0 1 4 4v20a5 5 0 0 1-5 5H8a5 5 0 0 1-5-5z"/>
    <path fill="none" stroke="#F7F5F0" stroke-width="9.5" d="M41.5 34.2a11 11 0 1 0 0 11.6"/>
  </g>
  <text x="70" y="42" font-family="Source Serif 4, Source Serif Pro, Georgia, serif" font-size="30" font-weight="700" letter-spacing="-0.6" fill="#14425C">ColCarpeta</text>
</svg>
